<svg width="32" height="32" viewBox="0 0 32 32" fill="none" xmlns="http://www.w3.org/2000/svg">
<path d="M14.1801 11.8004C13.5489 11.8004 12.9435 12.0511 12.4972 12.4974C12.0509 12.9438 11.8001 13.5491 11.8001 14.1803C11.8001 14.4193 11.8472 14.656 11.9386 14.8768C12.0301 15.0976 12.1642 15.2982 12.3332 15.4672C12.5022 15.6362 12.7028 15.7703 12.9236 15.8617C13.1444 15.9532 13.3811 16.0003 13.6201 16.0003H18.38C18.619 16.0003 18.8556 15.9532 19.0765 15.8617C19.2973 15.7703 19.4979 15.6362 19.6669 15.4672C19.8359 15.2982 19.9699 15.0976 20.0614 14.8768C20.1529 14.656 20.1999 14.4193 20.1999 14.1803C20.1999 13.5491 19.9492 12.9438 19.5029 12.4974C19.0565 12.0511 18.4512 11.8004 17.82 11.8004H14.1801ZM13.2001 14.1803C13.2001 13.9204 13.3033 13.6711 13.4871 13.4874C13.6709 13.3036 13.9202 13.2003 14.1801 13.2003H17.82C18.0799 13.2003 18.3292 13.3036 18.5129 13.4874C18.6967 13.6711 18.8 13.9204 18.8 14.1803C18.8 14.2917 18.7557 14.3985 18.677 14.4773C18.5982 14.5561 18.4914 14.6003 18.38 14.6003H13.6201C13.5087 14.6003 13.4019 14.5561 13.3231 14.4773C13.2443 14.3985 13.2001 14.2917 13.2001 14.1803Z" fill="#222222"/>
<path d="M16 4.80048C15.0718 4.80048 14.1815 5.16922 13.5252 5.82558C12.8688 6.48195 12.5001 7.37217 12.5001 8.30041V8.36201C11.0378 9.03244 9.79868 10.1086 8.93008 11.4626C8.06148 12.8167 7.59989 14.3916 7.60016 16.0003V23.0001C7.60016 24.114 8.04265 25.1823 8.83029 25.9699C9.61792 26.7575 10.6862 27.2 11.8001 27.2H20.1999C21.3138 27.2 22.3821 26.7575 23.1697 25.9699C23.9573 25.1823 24.3998 24.114 24.3998 23.0001V16.0003C24.4001 14.3916 23.9385 12.8167 23.0699 11.4626C22.2013 10.1086 20.9622 9.03244 19.4999 8.36201V8.30041C19.4999 7.37217 19.1312 6.48195 18.4748 5.82558C17.8185 5.16922 16.9282 4.80048 16 4.80048ZM22.9999 18.8002H9.00013V16.0003C9.00013 14.1438 9.73761 12.3633 11.0503 11.0506C12.3631 9.73788 14.1435 9.00039 16 9.00039C17.8565 9.00039 19.6369 9.73788 20.9496 11.0506C22.2624 12.3633 22.9999 14.1438 22.9999 16.0003V18.8002ZM11.8001 22.3001C11.8001 22.4858 11.8738 22.6638 12.0051 22.7951C12.1364 22.9264 12.3144 23.0001 12.5001 23.0001C12.6857 23.0001 12.8638 22.9264 12.995 22.7951C13.1263 22.6638 13.2 22.4858 13.2 22.3001V20.2002H22.9999V23.0001C22.9999 23.7427 22.7049 24.4549 22.1798 24.98C21.6547 25.5051 20.9425 25.8001 20.1999 25.8001H11.8001C11.0575 25.8001 10.3453 25.5051 9.82022 24.98C9.29512 24.4549 9.00013 23.7427 9.00013 23.0001V20.2002H11.8001V22.3001ZM16 7.60042C15.2916 7.60042 14.6042 7.68862 13.9476 7.85242C14.0492 7.38357 14.3082 6.96363 14.6816 6.66245C15.055 6.36128 15.5203 6.19703 16 6.19703C16.4797 6.19703 16.945 6.36128 17.3184 6.66245C17.6918 6.96363 17.9508 7.38357 18.0524 7.85242C17.3944 7.68862 16.7084 7.60042 16 7.60042Z" fill="#222222"/>
</svg>
